<svg xmlns="http://www.w3.org/2000/svg" viewBox="0 0 700 400" style="font-family: -apple-system, BlinkMacSystemFont, 'Segoe UI', Roboto, sans-serif;">
  <rect width="700" height="400" fill="#FFFFFF"/>

  <!-- Title -->
  <text x="350.0" y="25" text-anchor="middle" font-size="18" font-weight="bold" fill="#1F2937">mirror_hash::fast vs rapidhash</text>
  <text x="350.0" y="45" text-anchor="middle" font-size="12" fill="#9CA3AF">Throughput comparison across all data sizes - ARM64 M3 Max</text>

  <!-- Grid lines -->
  <line x1="80" y1="60.0" x2="670" y2="60.0" stroke="#E5E7EB" stroke-width="1"/>
  <text x="70" y="64.0" text-anchor="end" font-size="11" fill="#9CA3AF">66.7</text>
  <line x1="80" y1="112.0" x2="670" y2="112.0" stroke="#E5E7EB" stroke-width="1"/>
  <text x="70" y="116.0" text-anchor="end" font-size="11" fill="#9CA3AF">53.4</text>
  <line x1="80" y1="164.0" x2="670" y2="164.0" stroke="#E5E7EB" stroke-width="1"/>
  <text x="70" y="168.0" text-anchor="end" font-size="11" fill="#9CA3AF">40.0</text>
  <line x1="80" y1="216.0" x2="670" y2="216.0" stroke="#E5E7EB" stroke-width="1"/>
  <text x="70" y="220.0" text-anchor="end" font-size="11" fill="#9CA3AF">26.7</text>
  <line x1="80" y1="268.0" x2="670" y2="268.0" stroke="#E5E7EB" stroke-width="1"/>
  <text x="70" y="272.0" text-anchor="end" font-size="11" fill="#9CA3AF">13.3</text>
  <line x1="80" y1="320.0" x2="670" y2="320.0" stroke="#E5E7EB" stroke-width="1"/>
  <text x="70" y="324.0" text-anchor="end" font-size="11" fill="#9CA3AF">0.0</text>
  <text x="15" y="190.0" text-anchor="middle" font-size="12" fill="#1F2937" transform="rotate(-90, 15, 190.0)">Throughput (GB/s)</text>

  <!-- Bars -->
  <rect x="94.75" y="278.29085457271367" width="51.625" height="41.70914542728636" fill="#6B7280" rx="2"/>
  <text x="120.5625" y="273.29085457271367" text-anchor="middle" font-size="10" fill="#1F2937">10.70</text>
  <rect x="161.125" y="275.952023988006" width="51.625" height="44.04797601199402" fill="#3B82F6" rx="2"/>
  <text x="186.9375" y="270.952023988006" text-anchor="middle" font-size="10" fill="#1F2937">11.30</text>
  <text x="153.75" y="255.95202398800598" text-anchor="middle" font-size="11" font-weight="bold" fill="#10B981">+5.6%</text>
  <text x="153.75" y="340" text-anchor="middle" font-size="12" fill="#1F2937">4-16B</text>
  <rect x="242.25" y="143.80809595202393" width="51.625" height="176.19190404797607" fill="#6B7280" rx="2"/>
  <text x="268.0625" y="138.80809595202393" text-anchor="middle" font-size="10" fill="#1F2937">45.20</text>
  <rect x="308.625" y="115.74212893553221" width="51.625" height="204.2578710644678" fill="#3B82F6" rx="2"/>
  <text x="334.4375" y="110.74212893553221" text-anchor="middle" font-size="10" fill="#1F2937">52.40</text>
  <text x="301.25" y="95.74212893553221" text-anchor="middle" font-size="11" font-weight="bold" fill="#10B981">+15.9%</text>
  <text x="301.25" y="340" text-anchor="middle" font-size="12" fill="#1F2937">128B</text>
  <rect x="389.75" y="111.45427286356818" width="51.625" height="208.54572713643182" fill="#6B7280" rx="2"/>
  <text x="415.5625" y="106.45427286356818" text-anchor="middle" font-size="10" fill="#1F2937">53.50</text>
  <rect x="456.125" y="105.21739130434779" width="51.625" height="214.78260869565221" fill="#3B82F6" rx="2"/>
  <text x="481.9375" y="100.21739130434779" text-anchor="middle" font-size="10" fill="#1F2937">55.10</text>
  <text x="448.75" y="85.21739130434779" text-anchor="middle" font-size="11" font-weight="bold" fill="#10B981">+3.0%</text>
  <text x="448.75" y="340" text-anchor="middle" font-size="12" fill="#1F2937">512B-64KB</text>
  <rect x="537.25" y="169.92503748125935" width="51.625" height="150.07496251874065" fill="#6B7280" rx="2"/>
  <text x="563.0625" y="164.92503748125935" text-anchor="middle" font-size="10" fill="#1F2937">38.50</text>
  <rect x="603.625" y="93.91304347826082" width="51.625" height="226.08695652173918" fill="#3B82F6" rx="2"/>
  <text x="629.4375" y="88.91304347826082" text-anchor="middle" font-size="10" fill="#1F2937">58.00</text>
  <text x="596.25" y="73.91304347826082" text-anchor="middle" font-size="11" font-weight="bold" fill="#10B981">+50.6%</text>
  <text x="596.25" y="340" text-anchor="middle" font-size="12" fill="#1F2937">128KB+</text>

  <!-- Legend -->
  <rect x="270.0" y="365" width="15" height="15" fill="#6B7280" rx="2"/>
  <text x="290.0" y="377" font-size="11" fill="#1F2937">rapidhash</text>
  <rect x="370.0" y="365" width="15" height="15" fill="#3B82F6" rx="2"/>
  <text x="390.0" y="377" font-size="11" fill="#1F2937">mirror_hash::fast</text>

  <!-- Axes -->
  <line x1="80" y1="60" x2="80" y2="320" stroke="#9CA3AF" stroke-width="2"/>
  <line x1="80" y1="320" x2="670" y2="320" stroke="#9CA3AF" stroke-width="2"/>
</svg>