<svg xmlns="http://www.w3.org/2000/svg" viewBox="0 0 600 400" style="font-family: -apple-system, BlinkMacSystemFont, 'Segoe UI', Roboto, sans-serif;">
  <rect width="600" height="400" fill="#FFFFFF"/>

  <!-- Title -->
  <text x="300.0" y="25" text-anchor="middle" font-size="18" font-weight="bold" fill="#1F2937">Parallel Accumulators: Medium Data Throughput</text>
  <text x="300.0" y="45" text-anchor="middle" font-size="12" fill="#9CA3AF">Throughput in GB/s (higher is better) - ARM64 M3 Max</text>

  <!-- Grid lines -->
  <line x1="80" y1="60.0" x2="570" y2="60.0" stroke="#E5E7EB" stroke-width="1"/>
  <text x="70" y="64.0" text-anchor="end" font-size="11" fill="#9CA3AF">65.0</text>
  <line x1="80" y1="112.0" x2="570" y2="112.0" stroke="#E5E7EB" stroke-width="1"/>
  <text x="70" y="116.0" text-anchor="end" font-size="11" fill="#9CA3AF">52.0</text>
  <line x1="80" y1="164.0" x2="570" y2="164.0" stroke="#E5E7EB" stroke-width="1"/>
  <text x="70" y="168.0" text-anchor="end" font-size="11" fill="#9CA3AF">39.0</text>
  <line x1="80" y1="216.0" x2="570" y2="216.0" stroke="#E5E7EB" stroke-width="1"/>
  <text x="70" y="220.0" text-anchor="end" font-size="11" fill="#9CA3AF">26.0</text>
  <line x1="80" y1="268.0" x2="570" y2="268.0" stroke="#E5E7EB" stroke-width="1"/>
  <text x="70" y="272.0" text-anchor="end" font-size="11" fill="#9CA3AF">13.0</text>
  <line x1="80" y1="320.0" x2="570" y2="320.0" stroke="#E5E7EB" stroke-width="1"/>
  <text x="70" y="324.0" text-anchor="end" font-size="11" fill="#9CA3AF">0.0</text>
  <text x="15" y="190.0" text-anchor="middle" font-size="12" fill="#1F2937" transform="rotate(-90, 15, 190.0)">Throughput (GB/s)</text>

  <!-- Bars -->
  <rect x="96.33333333333336" y="139.13043478260866" width="57.166666666666664" height="180.86956521739134" fill="#6B7280" rx="2"/>
  <text x="124.91666666666669" y="134.13043478260866" text-anchor="middle" font-size="10" fill="#1F2937">45.20</text>
  <rect x="169.83333333333334" y="110.31935359753749" width="57.166666666666664" height="209.68064640246251" fill="#3B82F6" rx="2"/>
  <text x="198.41666666666669" y="105.31935359753749" text-anchor="middle" font-size="10" fill="#1F2937">52.40</text>
  <text x="161.66666666666669" y="90.31935359753749" text-anchor="middle" font-size="11" font-weight="bold" fill="#10B981">+15.9%</text>
  <text x="161.66666666666669" y="340" text-anchor="middle" font-size="12" fill="#1F2937">128 bytes</text>
  <rect x="259.66666666666663" y="111.51981531358211" width="57.166666666666664" height="208.48018468641789" fill="#6B7280" rx="2"/>
  <text x="288.24999999999994" y="106.51981531358211" text-anchor="middle" font-size="10" fill="#1F2937">52.10</text>
  <rect x="333.1666666666667" y="105.11735282801072" width="57.166666666666664" height="214.88264717198928" fill="#3B82F6" rx="2"/>
  <text x="361.75" y="100.11735282801072" text-anchor="middle" font-size="10" fill="#1F2937">53.70</text>
  <text x="325.0" y="85.11735282801072" text-anchor="middle" font-size="11" font-weight="bold" fill="#10B981">+3.1%</text>
  <text x="325.0" y="340" text-anchor="middle" font-size="12" fill="#1F2937">512 bytes</text>
  <rect x="423.0" y="100.71565986918046" width="57.166666666666664" height="219.28434013081954" fill="#6B7280" rx="2"/>
  <text x="451.5833333333333" y="95.71565986918046" text-anchor="middle" font-size="10" fill="#1F2937">54.80</text>
  <rect x="496.50000000000006" y="93.91304347826085" width="57.166666666666664" height="226.08695652173915" fill="#3B82F6" rx="2"/>
  <text x="525.0833333333334" y="88.91304347826085" text-anchor="middle" font-size="10" fill="#1F2937">56.50</text>
  <text x="488.33333333333337" y="73.91304347826085" text-anchor="middle" font-size="11" font-weight="bold" fill="#10B981">+3.1%</text>
  <text x="488.33333333333337" y="340" text-anchor="middle" font-size="12" fill="#1F2937">64 KB</text>

  <!-- Legend -->
  <rect x="220.0" y="365" width="15" height="15" fill="#6B7280" rx="2"/>
  <text x="240.0" y="377" font-size="11" fill="#1F2937">rapidhash</text>
  <rect x="320.0" y="365" width="15" height="15" fill="#3B82F6" rx="2"/>
  <text x="340.0" y="377" font-size="11" fill="#1F2937">mirror_hash::fast</text>

  <!-- Axes -->
  <line x1="80" y1="60" x2="80" y2="320" stroke="#9CA3AF" stroke-width="2"/>
  <line x1="80" y1="320" x2="570" y2="320" stroke="#9CA3AF" stroke-width="2"/>
</svg>