<svg xmlns="http://www.w3.org/2000/svg" viewBox="0 0 600 400" style="font-family: -apple-system, BlinkMacSystemFont, 'Segoe UI', Roboto, sans-serif;">
  <rect width="600" height="400" fill="#FFFFFF"/>

  <!-- Title -->
  <text x="300.0" y="25" text-anchor="middle" font-size="18" font-weight="bold" fill="#1F2937">Small Data Performance: Overlapping Reads</text>
  <text x="300.0" y="45" text-anchor="middle" font-size="12" fill="#9CA3AF">Latency in nanoseconds (lower is better) - ARM64 M3 Max</text>

  <!-- Grid lines -->
  <line x1="80" y1="60.0" x2="570" y2="60.0" stroke="#E5E7EB" stroke-width="1"/>
  <text x="70" y="64.0" text-anchor="end" font-size="11" fill="#9CA3AF">0.9</text>
  <line x1="80" y1="112.0" x2="570" y2="112.0" stroke="#E5E7EB" stroke-width="1"/>
  <text x="70" y="116.0" text-anchor="end" font-size="11" fill="#9CA3AF">0.7</text>
  <line x1="80" y1="164.0" x2="570" y2="164.0" stroke="#E5E7EB" stroke-width="1"/>
  <text x="70" y="168.0" text-anchor="end" font-size="11" fill="#9CA3AF">0.6</text>
  <line x1="80" y1="216.0" x2="570" y2="216.0" stroke="#E5E7EB" stroke-width="1"/>
  <text x="70" y="220.0" text-anchor="end" font-size="11" fill="#9CA3AF">0.4</text>
  <line x1="80" y1="268.0" x2="570" y2="268.0" stroke="#E5E7EB" stroke-width="1"/>
  <text x="70" y="272.0" text-anchor="end" font-size="11" fill="#9CA3AF">0.2</text>
  <line x1="80" y1="320.0" x2="570" y2="320.0" stroke="#E5E7EB" stroke-width="1"/>
  <text x="70" y="324.0" text-anchor="end" font-size="11" fill="#9CA3AF">0.0</text>
  <text x="15" y="190.0" text-anchor="middle" font-size="12" fill="#1F2937" transform="rotate(-90, 15, 190.0)">Latency (ns)</text>

  <!-- Bars -->
  <rect x="96.33333333333336" y="108.04347826086953" width="57.166666666666664" height="211.95652173913047" fill="#6B7280" rx="2"/>
  <text x="124.91666666666669" y="103.04347826086953" text-anchor="middle" font-size="10" fill="#1F2937">0.75</text>
  <rect x="169.83333333333334" y="119.34782608695653" width="57.166666666666664" height="200.65217391304347" fill="#3B82F6" rx="2"/>
  <text x="198.41666666666669" y="114.34782608695653" text-anchor="middle" font-size="10" fill="#1F2937">0.71</text>
  <text x="161.66666666666669" y="88.04347826086953" text-anchor="middle" font-size="11" font-weight="bold" fill="#10B981">+5.3%</text>
  <text x="161.66666666666669" y="340" text-anchor="middle" font-size="12" fill="#1F2937">4 bytes</text>
  <rect x="259.66666666666663" y="108.04347826086953" width="57.166666666666664" height="211.95652173913047" fill="#6B7280" rx="2"/>
  <text x="288.24999999999994" y="103.04347826086953" text-anchor="middle" font-size="10" fill="#1F2937">0.75</text>
  <rect x="333.1666666666667" y="119.34782608695653" width="57.166666666666664" height="200.65217391304347" fill="#3B82F6" rx="2"/>
  <text x="361.75" y="114.34782608695653" text-anchor="middle" font-size="10" fill="#1F2937">0.71</text>
  <text x="325.0" y="88.04347826086953" text-anchor="middle" font-size="11" font-weight="bold" fill="#10B981">+5.3%</text>
  <text x="325.0" y="340" text-anchor="middle" font-size="12" fill="#1F2937">8 bytes</text>
  <rect x="423.0" y="93.91304347826085" width="57.166666666666664" height="226.08695652173915" fill="#6B7280" rx="2"/>
  <text x="451.5833333333333" y="88.91304347826085" text-anchor="middle" font-size="10" fill="#1F2937">0.80</text>
  <rect x="496.50000000000006" y="108.04347826086953" width="57.166666666666664" height="211.95652173913047" fill="#3B82F6" rx="2"/>
  <text x="525.0833333333334" y="103.04347826086953" text-anchor="middle" font-size="10" fill="#1F2937">0.75</text>
  <text x="488.33333333333337" y="73.91304347826085" text-anchor="middle" font-size="11" font-weight="bold" fill="#10B981">+6.3%</text>
  <text x="488.33333333333337" y="340" text-anchor="middle" font-size="12" fill="#1F2937">16 bytes</text>

  <!-- Legend -->
  <rect x="220.0" y="365" width="15" height="15" fill="#6B7280" rx="2"/>
  <text x="240.0" y="377" font-size="11" fill="#1F2937">rapidhash</text>
  <rect x="320.0" y="365" width="15" height="15" fill="#3B82F6" rx="2"/>
  <text x="340.0" y="377" font-size="11" fill="#1F2937">mirror_hash::fast</text>

  <!-- Axes -->
  <line x1="80" y1="60" x2="80" y2="320" stroke="#9CA3AF" stroke-width="2"/>
  <line x1="80" y1="320" x2="570" y2="320" stroke="#9CA3AF" stroke-width="2"/>
</svg>