<svg xmlns="http://www.w3.org/2000/svg" viewBox="0 0 480 360" font-family="ui-monospace,'SF Mono',Menlo,Consolas,monospace">
  <rect width="480" height="360" rx="10" fill="#0d0d0d"/>
  <path d="M10 0.5 h460 a9.5 9.5 0 0 1 9.5 9.5 v26 h-479 v-26 a9.5 9.5 0 0 1 9.5 -9.5 z" fill="#141414"/>
  <line x1="0" y1="36" x2="480" y2="36" stroke="#1f1f1f"/>
  <circle cx="22" cy="18" r="5" fill="#f87171"/>
  <circle cx="42" cy="18" r="5" fill="#fbbf24"/>
  <circle cx="62" cy="18" r="5" fill="#4ade80"/>
  <text x="82" y="22.5" font-size="12.5" fill="#6b6b6b">$ am_i_wrong --watch headlines</text>

  <!-- scraped headline card -->
  <rect x="36" y="80" width="408" height="124" rx="8" fill="#141414" stroke="#2a2a2a"/>
  <rect x="52" y="98" width="12" height="12" fill="#f87171"/>
  <text x="72" y="108.5" font-size="11" fill="#737373">notícias · economia</text>
  <text x="52" y="146" font-size="18" font-weight="700" fill="#e5e5e5">Governo anuncia novo pacote</text>
  <rect x="47" y="160" width="106" height="26" fill="none" stroke="#f87171" stroke-width="1.5" rx="3"/>
  <text x="52" y="179" font-size="18" font-weight="700" fill="#f87171">economico</text>
  <text x="164" y="179" font-size="18" font-weight="700" fill="#e5e5e5">para 2026</text>

  <!-- model verdict, terminal-style -->
  <text x="52" y="240" font-size="13.5"><tspan fill="#f87171">✗ economico</tspan><tspan fill="#525252">  →  </tspan><tspan fill="#4ade80">✓ econômico</tspan><tspan fill="#525252">   (p=0.97)</tspan></text>

  <text x="240" y="282" font-size="12.5" fill="#c084fc" text-anchor="middle">[ local LLM · ollama / vllm ]</text>
  <text x="240" y="322" font-size="12" fill="#737373" text-anchor="middle">scrape → proofread in context → annotated report</text>

  <rect x="0.5" y="0.5" width="479" height="359" rx="9.5" fill="none" stroke="#262626"/>
</svg>
